<svg version="1.0" xmlns="http://www.w3.org/2000/svg" width="256.000000pt" height="256.000000pt" viewBox="0 0 256.000000 256.000000" preserveAspectRatio="xMidYMid meet">

<g transform="translate(0.000000,256.000000) scale(0.100000,-0.100000)" fill="#ffffff" stroke="none">
<path d="M893 1771 c-69 -17 -116 -69 -128 -142 -6 -34 -10 -38 -46 -44 -29 -5 -39 -11 -39 -26 0 -16 7 -19 40 -19 l40 0 0 -280 0 -280 40 0 40 0 0 280 0 280 101 0 101 0 -32 -37 c-80 -91 -107 -214 -72 -330 39 -127 130 -208 246 -220 162 -17 306 130 306 312 0 61 11 84 23 51 3 -8 57 -39 120 -69 67 -32 123 -66 135 -82 46 -58 16 -135 -61 -156 -55 -15 -110 -5 -174 32 l-53 29 0 -44 c0 -40 3 -45 31 -55 87 -30 206 -21 271 22 47 31 80 101 75 154 -7 68 -42 103 -161 161 -129 63 -146 79 -146 133 0 76 84 126 169 100 21 -6 45 -19 55 -29 9 -11 58 -121 110 -245 l94 -227 -59 -120 -58 -120 37 0 37 0 114 275 c63 151 117 275 121 275 4 0 12 -11 18 -24 7 -16 47 -42 124 -80 126 -64 158 -91 158 -139 0 -114 -164 -144 -285 -52 l-45 35 0 -49 c0 -47 1 -48 42 -67 65 -29 188 -27 252 6 58 29 84 60 96 116 21 92 -21 145 -177 223 -56 28 -107 60 -113 70 -5 11 -10 36 -10 56 0 91 121 129 228 70 l42 -24 0 39 c0 25 -5 40 -16 44 -37 14 -124 17 -178 6 -96 -20 -113 -41 -202 -266 -43 -108 -80 -192 -82 -187 -1 4 -42 105 -91 223 l-87 215 -50 13 c-65 17 -168 10 -226 -16 -54 -24 -88 -70 -88 -119 0 -41 -14 -42 -30 -3 -16 39 -80 103 -128 126 -32 17 -64 19 -253 20 -119 1 -222 5 -229 9 -22 13 -5 87 26 114 24 20 36 23 81 19 34 -3 65 -13 83 -27 l30 -22 0 40 c0 22 -3 42 -7 44 -17 10 -130 15 -160 8z m370 -245 c44 -19 92 -71 119 -131 17 -38 22 -69 23 -131 0 -70 -4 -88 -30 -139 -16 -32 -47 -72 -68 -89 -34 -27 -46 -31 -102 -31 -56 0 -68 4 -102 31 -53 43 -94 126 -100 206 -16 190 124 342 260 284z" fill="#ffffff"/>
<path d="M30 1372 l0 -398 40 4 40 4 0 394 0 394 -40 0 -40 0 0 -398z" fill="#ffffff"/>
<path d="M385 1572 c-22 -11 -48 -29 -59 -40 -24 -27 -33 -22 -30 17 2 30 0 31 -38 31 l-40 0 4 -300 3 -300 38 0 37 0 0 236 0 236 33 33 c18 18 52 39 75 45 36 11 48 11 88 -5 81 -31 84 -42 84 -315 l0 -236 40 4 40 4 0 239 c0 269 -4 288 -65 335 -50 37 -148 45 -210 16z" fill="#ffffff"/>
</g>
</svg>